<svg xmlns="http://www.w3.org/2000/svg" xmlns:xlink="http://www.w3.org/1999/xlink" width="84" height="84" viewBox="0 0 84 84">
  <defs>
    <clipPath id="clip-path">
      <rect id="Rectángulo_454745" data-name="Rectángulo 454745" width="44.548" height="64.326" fill="none"/>
    </clipPath>
  </defs>
  <g id="Grupo_1177197" data-name="Grupo 1177197" transform="translate(-705.629 -384)">
    <g id="Grupo_1176921" data-name="Grupo 1176921" transform="translate(0 -1297)">
      <rect id="Rectángulo_402006" data-name="Rectángulo 402006" width="84" height="84" rx="10" transform="translate(705.629 1681)" fill="#9db89a"/>
      <g id="Grupo_1177131" data-name="Grupo 1177131" transform="translate(726.081 1691.886)">
        <g id="Grupo_1177131-2" data-name="Grupo 1177131" clip-path="url(#clip-path)">
          <path id="Trazado_994773" data-name="Trazado 994773" d="M41.114,54a17.572,17.572,0,0,0-5.543-1.8,38.811,38.811,0,0,0-6.315-.709.728.728,0,0,1,.2-.7q2.491-3.434,4.983-6.867c1.966-2.7,4.012-5.347,5.844-8.147a26.564,26.564,0,0,0,3.112-6.349,22.458,22.458,0,0,0,.955-10.053A21.838,21.838,0,0,0,38.82,7.533C33.591,1.7,26.993-.654,19.282.154A20.481,20.481,0,0,0,8.253,4.914,22.576,22.576,0,0,0,.861,28.556a29.033,29.033,0,0,0,4.578,9.03q4.607,6.378,9.235,12.741c.2.283.522.51.525.92a2.627,2.627,0,0,1-1.193.227c-1.174.146-2.357.226-3.525.406a21.94,21.94,0,0,0-5.8,1.5A11.308,11.308,0,0,0,1.952,55.1a3.251,3.251,0,0,0-.1,4.788,9.089,9.089,0,0,0,2.279,1.562A21.891,21.891,0,0,0,8.965,63a66.735,66.735,0,0,0,13.641,1.322,60.036,60.036,0,0,0,11.667-.966,24.144,24.144,0,0,0,5.876-1.81,8.222,8.222,0,0,0,2.525-1.741,3.1,3.1,0,0,0,.375-4.084A5.329,5.329,0,0,0,41.114,54m-33-17.028A32.235,32.235,0,0,1,3.758,29.2,20.1,20.1,0,0,1,8.075,8.568,18.944,18.944,0,0,1,17.831,3a17.245,17.245,0,0,1,4.133-.4,19.92,19.92,0,0,1,10.56,2.914,19.672,19.672,0,0,1,9.227,14.107,19.462,19.462,0,0,1-1.756,11.4,29.791,29.791,0,0,1-2.9,4.9q-7.169,9.943-14.672,19.638a1.882,1.882,0,0,1-.4.284c-.582-.737-1.168-1.447-1.718-2.184-1.69-2.266-3.38-4.532-5.044-6.817-2.391-3.281-4.745-6.59-7.144-9.866M40.093,58.65a15.6,15.6,0,0,1-4.866,1.866c-1.542.369-3.118.6-4.68.884a2.87,2.87,0,0,1-.46.045c-2.463.048-4.908.514-7.354.29a40.551,40.551,0,0,1-7.251-.323,35.708,35.708,0,0,1-9.034-1.746c-.579-.208-1.157-.425-1.718-.677-.618-.277-1.271-.625-1.3-1.377-.027-.695.605-1.039,1.131-1.344a12.111,12.111,0,0,1,3.465-1.25c2.4-.54,4.842-.861,7.279-1.194,1.6-.219,2.01-.058,3.04,1.239s2.231,2.414,3.364,3.6c.415.436.605.426,1.011-.027.855-.957,1.686-1.936,2.522-2.91.133-.155.246-.329.369-.493a2.813,2.813,0,0,1,2.633-1.2,55.707,55.707,0,0,1,8.385,1.032,20.168,20.168,0,0,1,2.759.955,3.2,3.2,0,0,1,.68.361c1.447.982,1.141,1.558.025,2.27" transform="translate(0 0)" fill="#1b2924"/>
          <path id="Trazado_994774" data-name="Trazado 994774" d="M30.657,64.169c.55.737,1.137,1.447,1.718,2.184a1.882,1.882,0,0,0,.4-.284q7.529-9.674,14.672-19.638a29.8,29.8,0,0,0,2.9-4.9,19.462,19.462,0,0,0,1.756-11.4,19.671,19.671,0,0,0-9.227-14.107,19.918,19.918,0,0,0-10.56-2.914,17.235,17.235,0,0,0-4.133.4,18.946,18.946,0,0,0-9.756,5.571,20.1,20.1,0,0,0-4.317,20.628,32.235,32.235,0,0,0,4.354,7.775c2.4,3.276,4.753,6.584,7.144,9.866,1.665,2.284,3.354,4.551,5.044,6.817M18.565,32.537c.041-7.588,6.509-14.414,13.97-14.049,7.932-.155,14.176,6.781,14.107,14.358-.071,7.808-5.964,13.936-14.662,13.768-8.455-.164-13.45-7.466-13.415-14.077" transform="translate(-10.358 -10.516)" fill="#ee9f46"/>
          <path id="Trazado_994775" data-name="Trazado 994775" d="M54,274.622a3.194,3.194,0,0,0-.68-.361,20.2,20.2,0,0,0-2.759-.955,55.679,55.679,0,0,0-8.385-1.032,2.813,2.813,0,0,0-2.633,1.2c-.123.164-.236.338-.369.493-.837.974-1.667,1.953-2.522,2.91-.406.454-.6.463-1.011.027-1.133-1.189-2.338-2.311-3.364-3.6s-1.439-1.457-3.04-1.239c-2.437.333-4.877.654-7.279,1.194a12.117,12.117,0,0,0-3.465,1.25c-.527.3-1.158.649-1.131,1.344.029.752.682,1.1,1.3,1.377.561.251,1.139.468,1.718.677a35.69,35.69,0,0,0,9.034,1.746,40.551,40.551,0,0,0,7.251.323c2.446.223,4.89-.242,7.353-.29a2.873,2.873,0,0,0,.46-.045c1.562-.287,3.138-.516,4.68-.884a15.6,15.6,0,0,0,4.866-1.866c1.116-.712,1.422-1.288-.025-2.27" transform="translate(-13.929 -218.241)" fill="#6b8259"/>
          <path id="Trazado_994776" data-name="Trazado 994776" d="M69.61,54.641c.069-7.577-6.176-14.513-14.107-14.358-7.461-.364-13.929,6.461-13.97,14.049-.036,6.611,4.959,13.913,13.415,14.077,8.7.169,14.592-5.96,14.662-13.768M44.989,59.214a7.711,7.711,0,0,1-.81-2.479,12.086,12.086,0,0,1,3.489-11.006,10.606,10.606,0,0,1,9.142-3.085,12,12,0,0,1,10.045,9,10.65,10.65,0,0,1-1.183,8.467C63.45,58.054,61.444,56,59.533,53.842c-.478-.538-.941-1.089-1.425-1.621a8.906,8.906,0,0,0-.876-.867,2.166,2.166,0,0,0-2.829-.23,5.082,5.082,0,0,0-1.188.971Q50.5,54.936,47.781,57.78c-.532.557-1.05,1.129-1.594,1.675-.617.619-.761.576-1.2-.24m13.419-2.661a4.507,4.507,0,0,1-1.289,1.358,2.515,2.515,0,0,1-3.137.116,3.315,3.315,0,0,1-.6-.474,2.528,2.528,0,0,1-.788-.984,25.284,25.284,0,0,1,2.419-2.5.625.625,0,0,1,.959-.016,12.565,12.565,0,0,1,2.434,2.505m-10.554,6.48c-.452-.507-.513-.9-.091-1.358.9-.983,1.841-1.927,2.777-2.877.279-.283.563-.16.8.076a10.3,10.3,0,0,0,1.549,1.254,4.47,4.47,0,0,0,5.438-.089,10.056,10.056,0,0,0,1.823-1.7c1.19,1.255,2.3,2.383,3.36,3.562.482.537.4.818-.168,1.273a12.9,12.9,0,0,1-6.138,2.605A11.147,11.147,0,0,1,49.8,64.518a7.18,7.18,0,0,1-1.947-1.485" transform="translate(-33.326 -32.312)" fill="#1d2b24"/>
          <path id="Trazado_994777" data-name="Trazado 994777" d="M63.214,61.376A5.081,5.081,0,0,1,64.4,60.4a2.166,2.166,0,0,1,2.829.23,8.9,8.9,0,0,1,.876.867c.484.532.948,1.083,1.425,1.621,1.91,2.153,3.916,4.212,6.138,6.267a10.65,10.65,0,0,0,1.183-8.467,12,12,0,0,0-10.045-9,10.606,10.606,0,0,0-9.142,3.085,12.086,12.086,0,0,0-3.489,11.006,7.712,7.712,0,0,0,.81,2.479c.436.816.58.859,1.2.24.544-.546,1.062-1.117,1.594-1.675q2.716-2.843,5.434-5.684" transform="translate(-43.326 -41.591)" fill="#f4e8d2"/>
          <path id="Trazado_994778" data-name="Trazado 994778" d="M81.349,139.185a12.9,12.9,0,0,0,6.138-2.605c.57-.454.649-.736.168-1.273-1.057-1.179-2.17-2.307-3.36-3.562a10.05,10.05,0,0,1-1.823,1.7,4.47,4.47,0,0,1-5.438.089,10.283,10.283,0,0,1-1.549-1.254c-.241-.237-.526-.359-.8-.076-.935.95-1.877,1.894-2.777,2.877-.422.461-.361.851.091,1.358a7.186,7.186,0,0,0,1.947,1.485,11.149,11.149,0,0,0,7.407,1.266" transform="translate(-57.467 -105.712)" fill="#6d845a"/>
          <path id="Trazado_994779" data-name="Trazado 994779" d="M100.9,109.124a.625.625,0,0,0-.959.016,25.346,25.346,0,0,0-2.419,2.5,2.528,2.528,0,0,0,.788.984,3.316,3.316,0,0,0,.6.474,2.515,2.515,0,0,0,3.136-.116,4.505,4.505,0,0,0,1.289-1.357,12.577,12.577,0,0,0-2.434-2.505" transform="translate(-78.248 -87.388)" fill="#f8edd7"/>
        </g>
      </g>
    </g>
  </g>
</svg>
