<svg xmlns="http://www.w3.org/2000/svg" xmlns:xlink="http://www.w3.org/1999/xlink" width="70.716" height="70.714" viewBox="0 0 70.716 70.714">
  <defs>
    <clipPath id="clip-path">
      <rect id="Rectángulo_454581" data-name="Rectángulo 454581" width="70.716" height="70.714" transform="translate(0 0)" fill="none"/>
    </clipPath>
  </defs>
  <g id="Grupo_1177192" data-name="Grupo 1177192" transform="translate(13604.279 12016.714)">
    <g id="Grupo_1177043" data-name="Grupo 1177043" transform="translate(-13604.279 -12016.714)">
      <g id="Grupo_1176840" data-name="Grupo 1176840" clip-path="url(#clip-path)">
        <path id="Trazado_992217" data-name="Trazado 992217" d="M68.379,40.557l1.656,3.122a1.292,1.292,0,0,0-.775.91,1.49,1.49,0,0,0,.124,1.214,1.485,1.485,0,0,0-.784.94,1.308,1.308,0,0,0,.129,1.186l-3.123,1.657a1.557,1.557,0,1,0-2.75,1.46l-2.72,1.444a1.541,1.541,0,1,0-2.723,1.44l-2.72,1.444a1.543,1.543,0,1,0-2.726,1.447l-2.723,1.44a1.54,1.54,0,1,0-2.72,1.444L43.8,61.15a1.54,1.54,0,1,0-2.723,1.439l-2.725,1.448a1.538,1.538,0,1,0-2.716,1.442l-2.725,1.446a1.557,1.557,0,0,0-2.1-.671,1.575,1.575,0,0,0-.655,2.127l-3.118,1.654a1.35,1.35,0,0,0-.91-.776,1.52,1.52,0,0,0-1.219.127,1.512,1.512,0,0,0-.94-.784,1.307,1.307,0,0,0-1.191.131l-1.652-3.125a1.557,1.557,0,1,0-1.46-2.75l-1.444-2.72a1.541,1.541,0,1,0-1.444-2.721l-1.44-2.722A1.541,1.541,0,1,0,13.9,51.974l-1.447-2.725a1.54,1.54,0,1,0-1.439-2.723l-1.445-2.72a1.541,1.541,0,1,0-1.444-2.721L6.68,38.365a1.54,1.54,0,1,0-1.439-2.723L3.8,32.922a1.56,1.56,0,1,0-1.462-2.755L.68,27.049a1.333,1.333,0,0,0,.775-.91,1.5,1.5,0,0,0-.117-1.223,1.483,1.483,0,0,0,.777-.93,1.323,1.323,0,0,0-.129-1.2l3.121-1.649a1.578,1.578,0,0,0,2.131.653,1.557,1.557,0,0,0,.618-2.113l2.726-1.447A1.538,1.538,0,1,0,13.3,16.789l2.728-1.442a1.54,1.54,0,1,0,2.72-1.445l2.72-1.444a1.543,1.543,0,1,0,2.728-1.442l2.72-1.445a1.541,1.541,0,1,0,2.721-1.444l2.72-1.445A1.543,1.543,0,1,0,35.082,5.24L37.8,3.8a1.553,1.553,0,0,0,2.1.671,1.575,1.575,0,0,0,.653-2.131L43.675.679a1.308,1.308,0,0,0,.907.783,1.507,1.507,0,0,0,1.217-.12,1.489,1.489,0,0,0,.942.777,1.316,1.316,0,0,0,1.186-.129l1.654,3.118a1.575,1.575,0,0,0-.648,2.129,1.553,1.553,0,0,0,2.111.626l1.439,2.723a1.54,1.54,0,1,0,1.445,2.72l1.444,2.721a1.54,1.54,0,1,0,1.445,2.72l1.439,2.723A1.543,1.543,0,1,0,59.7,24.195l1.445,2.72a1.541,1.541,0,1,0,1.44,2.723l1.447,2.725a1.541,1.541,0,1,0,1.444,2.721l1.445,2.72a1.557,1.557,0,0,0-.672,2.1,1.579,1.579,0,0,0,2.127.656m-2.867,4.061L44.616,5.207,5.2,26.1,26.1,65.519Z" fill="#f8e9df"/>
        <path id="Trazado_992218" data-name="Trazado 992218" d="M65.513,44.618,26.1,65.518,5.206,26.1l39.411-20.9ZM52.966,49.579l.4-2.012-3.2-3.532.344-1.11a.9.9,0,0,0-.085-.72.861.861,0,0,0-.579-.41.877.877,0,0,0-1,.609l-.181.572-3.07-3.4L46,38.263a.9.9,0,0,0-.085-.72.867.867,0,0,0-.574-.413.9.9,0,0,0-1.013.615l-.121.389-1.6-2.5c.247-.782,1.69-5.581,1.676-8.17-.012-1.4-.237-2.321-.677-2.716a.727.727,0,0,0-.377-.191.715.715,0,0,0-.418-.056c-.587.077-1.3.707-2.1,1.859-1.475,2.118-3,6.9-3.243,7.683l-2.739,1.147.121-.389a.879.879,0,0,0-.5-1.08.821.821,0,0,0-.687.017.888.888,0,0,0-.478.546L32.775,35.6l-4.458,1.061.176-.569a.878.878,0,0,0-.5-1.077.848.848,0,0,0-.687.017.907.907,0,0,0-.478.546l-.344,1.109-4.639,1.1-.814,1.884,5.116-.216-.135.434,7.076.064,2.566.274-1.91,9.108-3.445.521-.941,1.286,4.437.982.421,1.49,1.19-.99,4.214,1.7-.049-1.593-2.549-2.377L40.6,41.765l2.257,1.213,5.887,3.964.135-.435Z" fill="#879b6c"/>
        <path id="Trazado_992219" data-name="Trazado 992219" d="M34.347,33.723a.879.879,0,0,1,.5,1.079l-.121.39,2.739-1.147c.244-.787,1.768-5.565,3.243-7.684.805-1.151,1.514-1.781,2.1-1.858a.717.717,0,0,1,.418.056.727.727,0,0,1,.377.191c.44.4.665,1.311.677,2.716.014,2.589-1.43,7.388-1.676,8.17l1.6,2.5.121-.39a.9.9,0,0,1,1.013-.614.867.867,0,0,1,.574.413.907.907,0,0,1,.085.72l-.407,1.312,3.07,3.4.181-.572a.877.877,0,0,1,1-.609.861.861,0,0,1,.579.41.907.907,0,0,1,.085.72l-.344,1.11,3.2,3.532-.4,2.012-4.088-3.072-.135.434-5.887-3.963L40.6,41.764l-3.581,8.59,2.549,2.377.049,1.592-4.214-1.7-1.19.99-.421-1.49-4.437-.982.941-1.286,3.445-.522,1.91-9.108-2.566-.274-7.076-.063.135-.434-5.116.216.814-1.884,4.639-1.1.344-1.109a.907.907,0,0,1,.478-.546.848.848,0,0,1,.687-.017.878.878,0,0,1,.5,1.076l-.176.57L32.775,35.6l.407-1.312a.885.885,0,0,1,.478-.546.821.821,0,0,1,.687-.017" fill="#f8e9df"/>
        <path id="Trazado_992220" data-name="Trazado 992220" d="M10.891,29.392l-1.407.741-.787-1.5L13.8,25.949l.788,1.5-1.407.74,2.776,5.274-2.293,1.207Z" fill="#322727"/>
        <path id="Trazado_992221" data-name="Trazado 992221" d="M20.336,29.17l-.779-.884-.463.244L20.446,31.1l-2.155,1.134-3.564-6.77,2.982-1.57a4.642,4.642,0,0,1,1.623-.533,2.575,2.575,0,0,1,1.369.178,1.857,1.857,0,0,1,.9.856,2.1,2.1,0,0,1,.263,1.276,2.564,2.564,0,0,1-.6,1.253,7.844,7.844,0,0,0,.515.6,1.11,1.11,0,0,0,.6.351,1.158,1.158,0,0,0,.678-.168,4.072,4.072,0,0,0,.412-.268l.845,1.6a2.864,2.864,0,0,1-.812.654,2.354,2.354,0,0,1-3.165-.521m-1.593-2.215a2.625,2.625,0,0,0,.943-.7.655.655,0,0,0,.007-.714.6.6,0,0,0-.5-.357,1.726,1.726,0,0,0-.858.256l-.679.358.715,1.358Z" fill="#322727"/>
        <path id="Trazado_992222" data-name="Trazado 992222" d="M22.875,21.173,25.867,19.6l5.522,5.739-2.313,1.217-.94-1.164-1.751.922.4,1.449-2.214,1.165Zm4.389,3.132-2.2-2.625.891,3.314Z" fill="#322727"/>
        <path id="Trazado_992223" data-name="Trazado 992223" d="M27.451,18.764l2.224-1.171,3.265,3.673L31.761,16.5l2.322-1.222,1.448,7.884-2.509,1.32Z" fill="#322727"/>
        <path id="Trazado_992224" data-name="Trazado 992224" d="M34.684,14.957l4.753-2.5.787,1.5-2.362,1.243.648,1.23,2.155-1.134.653,1.239-2.155,1.135.688,1.309,2.362-1.244.787,1.5-4.752,2.5Z" fill="#322727"/>
        <path id="Trazado_992225" data-name="Trazado 992225" d="M40.538,11.876l2.125-1.119,2.777,5.274,2.351-1.238.788,1.5L44.1,18.646Z" fill="#322727"/>
        <path id="Trazado_992226" data-name="Trazado 992226" d="M27.045,70.713a.679.679,0,0,1-.646-.467.722.722,0,0,0-.478-.342.826.826,0,0,0-.688.083.682.682,0,0,1-.915-.279.838.838,0,0,0-.547-.458.726.726,0,0,0-.569.02.678.678,0,0,1-1.018-.219l-1.651-3.127A.677.677,0,0,1,20.818,65a.877.877,0,1,0-.827-1.546.679.679,0,0,1-.917-.283l-1.445-2.72a.678.678,0,0,1,.283-.92A.9.9,0,0,0,18.36,59a.831.831,0,0,0-.059-.638.885.885,0,0,0-1.2-.343.677.677,0,0,1-.917-.284l-1.44-2.723a.68.68,0,0,1,.285-.919.891.891,0,0,0,.442-.529.848.848,0,0,0-.059-.653.883.883,0,0,0-1.195-.335.681.681,0,0,1-.917-.283l-1.447-2.725a.679.679,0,0,1,.285-.92.908.908,0,0,0,.445-.525.848.848,0,0,0-.055-.657.887.887,0,0,0-1.2-.338.682.682,0,0,1-.917-.282L8.969,44.124a.68.68,0,0,1,.283-.92.9.9,0,0,0,.448-.535.836.836,0,0,0-.059-.64.884.884,0,0,0-1.2-.343.679.679,0,0,1-.917-.283L6.08,38.683a.68.68,0,0,1,.284-.92.9.9,0,0,0,.446-.526.856.856,0,0,0-.057-.66.879.879,0,0,0-1.192-.335.677.677,0,0,1-.518.051.687.687,0,0,1-.4-.332L3.2,33.241a.679.679,0,0,1,.279-.918A.875.875,0,0,0,3.336,30.7a.871.871,0,0,0-.68.066.675.675,0,0,1-.52.052.685.685,0,0,1-.4-.332L.079,27.368A.681.681,0,0,1,.465,26.4c.181-.059.295-.326.346-.479a.817.817,0,0,0-.074-.693.68.68,0,0,1,.284-.918.81.81,0,0,0,.447-.535c.025-.084.108-.411-.018-.574a.68.68,0,0,1,.218-1.019l3.121-1.649a.678.678,0,0,1,.917.281.9.9,0,0,0,1.216.372A.876.876,0,0,0,7.257,20a.679.679,0,0,1,.281-.921l2.725-1.448a.677.677,0,0,1,.918.28.917.917,0,0,0,.53.446.833.833,0,0,0,1.057-.551.908.908,0,0,0-.07-.7.676.676,0,0,1-.051-.519.684.684,0,0,1,.333-.4l2.728-1.441a.681.681,0,0,1,.917.281.883.883,0,0,0,1.18.39.841.841,0,0,0,.411-.5.9.9,0,0,0-.07-.695.68.68,0,0,1,.281-.92l2.72-1.445a.677.677,0,0,1,.918.28.864.864,0,1,0,1.527-.8.679.679,0,0,1,.283-.917l2.72-1.445a.67.67,0,0,1,.519-.05.682.682,0,0,1,.4.332.9.9,0,0,0,.536.448.829.829,0,0,0,.639-.058.843.843,0,0,0,.414-.5.908.908,0,0,0-.069-.695.678.678,0,0,1,.28-.92l2.72-1.444a.68.68,0,0,1,.919.279.864.864,0,1,0,1.527-.8.678.678,0,0,1,.282-.917l2.721-1.445A.666.666,0,0,1,38,3.145a.68.68,0,0,1,.4.334.894.894,0,0,0,.534.446.84.84,0,0,0,.64-.058.9.9,0,0,0,.371-1.214.681.681,0,0,1,.283-.918L43.356.079a.681.681,0,0,1,.967.393c.061.193.348.3.467.341A.814.814,0,0,0,45.483.74a.679.679,0,0,1,.915.279.817.817,0,0,0,.545.45c.109.031.414.1.566-.014a.68.68,0,0,1,1.02.216L50.183,4.79a.681.681,0,0,1-.281.919.893.893,0,0,0-.369,1.206.848.848,0,0,0,.5.417.892.892,0,0,0,.689-.069.678.678,0,0,1,.921.282l1.44,2.723a.68.68,0,0,1-.281.918.881.881,0,0,0-.385,1.177.852.852,0,0,0,.512.414.906.906,0,0,0,.676-.07.667.667,0,0,1,.519-.052.681.681,0,0,1,.4.332l1.445,2.72a.678.678,0,0,1-.279.917.88.88,0,0,0-.385,1.181.83.83,0,0,0,.5.412.885.885,0,0,0,.69-.07.677.677,0,0,1,.921.282l1.439,2.723a.68.68,0,0,1-.28.918.9.9,0,0,0-.44.527.84.84,0,0,0,.566,1.065.9.9,0,0,0,.684-.069.68.68,0,0,1,.917.283l1.445,2.72a.681.681,0,0,1-.28.919.885.885,0,0,0-.39,1.181.858.858,0,0,0,.512.413.9.9,0,0,0,.676-.071.663.663,0,0,1,.519-.051.677.677,0,0,1,.4.332l1.447,2.725a.678.678,0,0,1-.283.92.894.894,0,0,0-.443.533.828.828,0,0,0,.057.635.882.882,0,0,0,1.2.35.679.679,0,0,1,.917.283l1.444,2.72a.681.681,0,0,1-.284.921.894.894,0,0,0-.443.528.843.843,0,0,0,.058.648.9.9,0,0,0,1.206.372.682.682,0,0,1,.919.283l1.656,3.124a.68.68,0,0,1-.4.967c-.188.06-.294.344-.332.463a.818.818,0,0,0,.077.7.678.678,0,0,1-.285.918.808.808,0,0,0-.452.539.714.714,0,0,0,.015.565.677.677,0,0,1-.216,1.019l-3.123,1.658a.685.685,0,0,1-.519.049A.671.671,0,0,1,65,49.9a.877.877,0,1,0-1.547.827.679.679,0,0,1-.283.917l-2.721,1.445a.679.679,0,0,1-.92-.285.9.9,0,0,0-.524-.442.841.841,0,0,0-.654.056.885.885,0,0,0-.341,1.194.679.679,0,0,1-.283.916l-2.72,1.444a.682.682,0,0,1-.921-.283.888.888,0,0,0-.529-.442.836.836,0,0,0-.648.061.881.881,0,0,0-.345,1.195.68.68,0,0,1-.283.918l-2.723,1.44a.7.7,0,0,1-.52.047.674.674,0,0,1-.4-.333.9.9,0,0,0-.531-.443.841.841,0,0,0-.641.06.879.879,0,0,0-.345,1.194.679.679,0,0,1-.283.917l-2.72,1.445a.68.68,0,0,1-.921-.284.861.861,0,1,0-1.519.807.679.679,0,0,1-.283.917l-2.725,1.446a.681.681,0,0,1-.921-.283.891.891,0,0,0-.532-.444.825.825,0,0,0-.639.06.837.837,0,0,0-.412.5.9.9,0,0,0,.069.689.678.678,0,0,1-.281.92l-2.725,1.448a.68.68,0,0,1-.92-.284.9.9,0,0,0-.524-.443.849.849,0,0,0-.654.056.9.9,0,0,0-.374,1.2.678.678,0,0,1-.28.92l-3.118,1.654a.679.679,0,0,1-.319.079m-1.4-2.207a2.36,2.36,0,0,1,1.613.641l2.073-1.1A2.262,2.262,0,0,1,30.5,65.655a2.18,2.18,0,0,1,1.7-.15,2.24,2.24,0,0,1,.905.548l1.7-.9a2.236,2.236,0,0,1,.06-1.079,2.2,2.2,0,0,1,2.75-1.461,2.24,2.24,0,0,1,.928.554l1.706-.9a2.209,2.209,0,0,1,3.74-1.981l1.7-.9a2.225,2.225,0,0,1,1.136-2.381,2.189,2.189,0,0,1,1.677-.158,2.211,2.211,0,0,1,.927.555l1.7-.9a2.227,2.227,0,0,1,1.137-2.381,2.173,2.173,0,0,1,1.684-.159,2.233,2.233,0,0,1,.925.553l1.7-.9a2.239,2.239,0,0,1,1.132-2.379,2.188,2.188,0,0,1,1.7-.15,2.245,2.245,0,0,1,.9.549l1.7-.9a2.226,2.226,0,0,1,1.136-2.382,2.2,2.2,0,0,1,1.713-.163,2.244,2.244,0,0,1,.918.544l2.072-1.1a2.306,2.306,0,0,1,.079-1.068,2.175,2.175,0,0,1,.615-1,2.165,2.165,0,0,1,.045-1.156,2.294,2.294,0,0,1,.538-.939l-1.1-2.074a2.262,2.262,0,0,1-2.394-1.161,2.2,2.2,0,0,1-.155-1.688,2.251,2.251,0,0,1,.553-.921l-.9-1.7a2.231,2.231,0,0,1-2.383-1.142,2.167,2.167,0,0,1-.156-1.67,2.263,2.263,0,0,1,.554-.928l-.9-1.7a2.249,2.249,0,0,1-1.055-.056,2.2,2.2,0,0,1-1.327-1.079,2.24,2.24,0,0,1,.4-2.608l-.9-1.7a2.252,2.252,0,0,1-1.056-.056,2.2,2.2,0,0,1-1.477-2.781,2.256,2.256,0,0,1,.547-.9l-.9-1.7a2.234,2.234,0,0,1-1.079-.06,2.187,2.187,0,0,1-1.3-1.074,2.226,2.226,0,0,1,.4-2.606l-.9-1.7a2.25,2.25,0,0,1-1.055-.056A2.2,2.2,0,0,1,51.218,13a2.233,2.233,0,0,1,.4-2.6l-.9-1.7a2.3,2.3,0,0,1-1.077-.061,2.189,2.189,0,0,1-1.3-1.08,2.255,2.255,0,0,1,.38-2.632l-1.1-2.072a2.359,2.359,0,0,1-1.061-.076,2.188,2.188,0,0,1-1-.612,2.215,2.215,0,0,1-1.158-.045,2.337,2.337,0,0,1-.942-.547l-2.071,1.1a2.253,2.253,0,0,1-1.164,2.4,2.17,2.17,0,0,1-1.674.158,2.225,2.225,0,0,1-.931-.558l-1.7.9a2.21,2.21,0,0,1-3.744,1.981l-1.7.9a2.26,2.26,0,0,1-.06,1.085,2.187,2.187,0,0,1-1.078,1.3A2.161,2.161,0,0,1,27.653,11a2.235,2.235,0,0,1-.932-.558l-1.7.9a2.21,2.21,0,0,1-3.744,1.981l-1.7.9a2.231,2.231,0,0,1-.06,1.084,2.186,2.186,0,0,1-1.076,1.3,2.237,2.237,0,0,1-2.605-.4l-1.707.9a2.24,2.24,0,0,1-.06,1.086,2.183,2.183,0,0,1-1.073,1.3,2.142,2.142,0,0,1-1.7.148,2.246,2.246,0,0,1-.9-.55l-1.7.906A2.229,2.229,0,0,1,7.56,22.39a2.274,2.274,0,0,1-2.642-.384L2.846,23.1a2.309,2.309,0,0,1-.079,1.078,2.214,2.214,0,0,1-.608.987,2.223,2.223,0,0,1-.05,1.161,2.431,2.431,0,0,1-.542.94l1.1,2.071a2.252,2.252,0,0,1,2.4,1.163,2.23,2.23,0,0,1-.4,2.61l.9,1.7a2.227,2.227,0,0,1,2.383,1.128A2.2,2.2,0,0,1,8.1,37.65a2.237,2.237,0,0,1-.552.908l.9,1.7a2.236,2.236,0,0,1,2.386,1.136A2.178,2.178,0,0,1,11,43.067a2.241,2.241,0,0,1-.558.931l.9,1.7a2.242,2.242,0,0,1,2.384,1.129,2.2,2.2,0,0,1,.148,1.712,2.252,2.252,0,0,1-.551.9l.9,1.7a2.242,2.242,0,0,1,2.383,1.126,2.209,2.209,0,0,1,.156,1.695,2.247,2.247,0,0,1-.553.921l.9,1.7A2.239,2.239,0,0,1,19.5,57.723,2.177,2.177,0,0,1,19.66,59.4a2.245,2.245,0,0,1-.558.932l.9,1.7A2.236,2.236,0,0,1,22,65.8l1.1,2.074a2.221,2.221,0,0,1,1.073.078,2.182,2.182,0,0,1,.993.614,1.987,1.987,0,0,1,.485-.059" fill="#322727"/>
        <path id="Trazado_992227" data-name="Trazado 992227" d="M26.1,66.2a.617.617,0,0,1-.2-.031.683.683,0,0,1-.4-.33L4.605,26.422a.68.68,0,0,1,.282-.919L44.3,4.606a.65.65,0,0,1,.518-.049.679.679,0,0,1,.4.331L66.113,44.3a.68.68,0,0,1-.282.919l-39.408,20.9a.674.674,0,0,1-.319.08M6.125,26.385,26.387,64.6,64.593,44.336,44.334,6.126Z" fill="#322727"/>
        <path id="Trazado_992228" data-name="Trazado 992228" d="M26.1,66.2a.617.617,0,0,1-.2-.031.683.683,0,0,1-.4-.33L4.605,26.422a.68.68,0,0,1,.282-.919L44.3,4.606a.65.65,0,0,1,.518-.049.679.679,0,0,1,.4.331L66.113,44.3a.68.68,0,0,1-.282.919l-39.408,20.9a.674.674,0,0,1-.319.08M6.125,26.385,26.387,64.6,64.593,44.336,44.334,6.126Z" fill="#322727"/>
        <path id="Trazado_992229" data-name="Trazado 992229" d="M39.616,55a.68.68,0,0,1-.255-.049L35.524,53.4l-.878.732a.68.68,0,0,1-1.089-.339l-.311-1.1L29.207,51.8a.681.681,0,0,1-.4-1.067l.942-1.285a.684.684,0,0,1,.447-.27l2.978-.451L34.83,40.82l-1.818-.194L26,40.568a.676.676,0,0,1-.543-.279.76.76,0,0,1-.072-.123l-4.332.183a.69.69,0,0,1-.589-.295A.679.679,0,0,1,20.4,39.4l.815-1.883a.675.675,0,0,1,.468-.392l4.261-1.012.229-.738a1.581,1.581,0,0,1,.837-.959,1.52,1.52,0,0,1,1.229-.033,1.571,1.571,0,0,1,.971,1.365l3.029-.72.292-.943a1.558,1.558,0,0,1,.837-.959,1.5,1.5,0,0,1,1.25-.025,1.555,1.555,0,0,1,.9,1.024l1.4-.584c.4-1.261,1.827-5.54,3.238-7.568.937-1.339,1.777-2.039,2.571-2.144a1.877,1.877,0,0,1,1.346.424c.592.531.88,1.554.894,3.209.014,2.532-1.249,6.876-1.613,8.073l.819,1.277A1.536,1.536,0,0,1,46.5,37.2a1.587,1.587,0,0,1,.147,1.265l-.292.942,2.086,2.311a1.547,1.547,0,0,1,2.569.142,1.588,1.588,0,0,1,.149,1.267l-.23.74,2.942,3.244a.677.677,0,0,1,.162.59l-.4,2.012a.68.68,0,0,1-1.075.411l-3.461-2.6a.682.682,0,0,1-.128.061.7.7,0,0,1-.606-.077l-5.886-3.963-1.538-.825-3.111,7.46,2.2,2.056a.682.682,0,0,1,.217.477l.047,1.592a.68.68,0,0,1-.679.7M35.4,51.942a.679.679,0,0,1,.254.049L38.9,53.3l-.008-.268L36.555,50.85a.677.677,0,0,1-.164-.758L39.972,41.5a.682.682,0,0,1,.95-.337l2.257,1.213,5.309,3.572a.652.652,0,0,1,.181-.09.675.675,0,0,1,.617.1l3.225,2.423.124-.617-2.972-3.279a.68.68,0,0,1-.146-.658l.345-1.109a.226.226,0,0,0-.023-.177.184.184,0,0,0-.134-.086.182.182,0,0,0-.211.144l-.183.577a.68.68,0,0,1-1.153.249l-3.07-3.4a.679.679,0,0,1-.145-.657l.407-1.311a.23.23,0,0,0-.022-.177.184.184,0,0,0-.136-.09.218.218,0,0,0-.216.157l-.119.383a.68.68,0,0,1-1.222.167l-1.6-2.5a.674.674,0,0,1-.075-.571c.016-.053,1.659-5.278,1.644-7.961-.015-1.692-.349-2.122-.451-2.214a.9.9,0,0,1-.209-.081c-.18.02-.7.187-1.676,1.577a34.883,34.883,0,0,0-3.15,7.494.672.672,0,0,1-.387.426l-2.739,1.147a.68.68,0,0,1-.912-.829L34.2,34.6a.2.2,0,0,0-.116-.253c-.189.035-.232.08-.246.129l-.41,1.323a.682.682,0,0,1-.493.46l-4.458,1.061a.68.68,0,0,1-.807-.863l.177-.57a.2.2,0,0,0-.12-.25.168.168,0,0,0-.135.008.23.23,0,0,0-.115.132l-.344,1.109a.679.679,0,0,1-.493.459L22.33,38.369l-.249.575,4.033-.172a.71.71,0,0,1,.568.266.669.669,0,0,1,.1.177l6.311.055,2.631.278a.679.679,0,0,1,.593.816L34.4,49.472a.679.679,0,0,1-.564.532l-3.164.48-.159.218,3.419.755a.679.679,0,0,1,.507.48l.137.483.386-.321a.682.682,0,0,1,.435-.157" fill="#322727"/>
        <path id="Trazado_992230" data-name="Trazado 992230" d="M39.616,55a.68.68,0,0,1-.255-.049L35.524,53.4l-.878.732a.68.68,0,0,1-1.089-.339l-.311-1.1L29.207,51.8a.681.681,0,0,1-.4-1.067l.942-1.285a.684.684,0,0,1,.447-.27l2.978-.451L34.83,40.82l-1.818-.194L26,40.568a.676.676,0,0,1-.543-.279.76.76,0,0,1-.072-.123l-4.332.183a.69.69,0,0,1-.589-.295A.679.679,0,0,1,20.4,39.4l.815-1.883a.675.675,0,0,1,.468-.392l4.261-1.012.229-.738a1.581,1.581,0,0,1,.837-.959,1.52,1.52,0,0,1,1.229-.033,1.571,1.571,0,0,1,.971,1.365l3.029-.72.292-.943a1.558,1.558,0,0,1,.837-.959,1.505,1.505,0,0,1,1.247-.026,1.559,1.559,0,0,1,.9,1.025l1.4-.584c.4-1.261,1.827-5.54,3.238-7.568.937-1.339,1.777-2.039,2.571-2.144a1.877,1.877,0,0,1,1.346.424c.592.531.88,1.554.894,3.209.014,2.532-1.249,6.876-1.613,8.073l.819,1.277A1.536,1.536,0,0,1,46.5,37.2a1.587,1.587,0,0,1,.147,1.265l-.292.942,2.086,2.311a1.547,1.547,0,0,1,2.569.142,1.588,1.588,0,0,1,.149,1.267l-.23.74,2.942,3.244a.677.677,0,0,1,.162.59l-.4,2.012a.68.68,0,0,1-1.075.411l-3.461-2.6a.682.682,0,0,1-.128.061.7.7,0,0,1-.606-.077l-5.886-3.963-1.538-.825-3.111,7.46,2.2,2.056a.682.682,0,0,1,.217.477l.047,1.592a.68.68,0,0,1-.679.7M35.4,51.942a.679.679,0,0,1,.254.049L38.9,53.3l-.008-.268L36.555,50.85a.677.677,0,0,1-.164-.758L39.972,41.5a.682.682,0,0,1,.95-.337l2.257,1.213,5.309,3.572a.652.652,0,0,1,.181-.09.675.675,0,0,1,.617.1l3.225,2.423.124-.617-2.972-3.279a.68.68,0,0,1-.146-.658l.345-1.109a.226.226,0,0,0-.023-.177.184.184,0,0,0-.134-.086.182.182,0,0,0-.211.144l-.183.577a.68.68,0,0,1-1.153.249l-3.07-3.4a.679.679,0,0,1-.145-.657l.407-1.311a.23.23,0,0,0-.022-.177.184.184,0,0,0-.136-.09.218.218,0,0,0-.216.157l-.119.383a.68.68,0,0,1-1.222.167l-1.6-2.5a.674.674,0,0,1-.075-.571c.016-.053,1.659-5.278,1.644-7.961-.015-1.692-.349-2.122-.451-2.214a.9.9,0,0,1-.209-.081c-.18.02-.7.187-1.676,1.577a34.883,34.883,0,0,0-3.15,7.494.672.672,0,0,1-.387.426l-2.739,1.147a.68.68,0,0,1-.912-.829L34.2,34.6a.2.2,0,0,0-.116-.253l-.008,0a.15.15,0,0,0-.126.01.209.209,0,0,0-.112.121l-.41,1.323a.682.682,0,0,1-.493.46l-4.458,1.061a.68.68,0,0,1-.807-.863l.177-.57a.2.2,0,0,0-.12-.25.168.168,0,0,0-.135.008.23.23,0,0,0-.115.132l-.344,1.109a.679.679,0,0,1-.493.459L22.33,38.369l-.249.575,4.033-.172a.71.71,0,0,1,.568.266.669.669,0,0,1,.1.177l6.311.055,2.631.278a.679.679,0,0,1,.593.816L34.4,49.472a.679.679,0,0,1-.564.532l-3.164.48-.159.218,3.419.755a.679.679,0,0,1,.507.48l.137.483.386-.321a.682.682,0,0,1,.435-.157" fill="#322727"/>
      </g>
    </g>
  </g>
</svg>
